Patient4_TMGait_0pt3_01_left_07_EMG.mot
version=1
nRows=16
nColumns=33
inDegrees=no
endheader
time	1LAddLong	2LGlutMax	3LGlutMed	4LIliopsoas	5LSemiMemb	6LBicFemLong	7LRecFem	8LVastMed	9LVastLat	10LGasMed	11LTibAnt	12lTibPost	13LPeroneusLong	14LSol	15LExtDigLong	16LFlexDigLong	17RAddLong	18RGlutMax	19RGlutMed	20RIliopsoas	21RSemiMemb	22RBicFemLong	23RRecFem	24RVastMed	25RVastLat	26RGasMed	27RTibAnt	28RTibPost	29RPeroneusLong	30RSol	31RExtDigLong	32RFlexDigLong
14.598	0.007477	-0.00412	-0.045624	-0.002289	0.000458	0.018311	0.034332	0.005646	-0.011597	-0.018616	0.14206	0.004578	0.018158	-0.008087	-0.17532	-0.001068	0.008545	0.066986	-0.61127	0.008392	-0.009918	0.11414	0.18356	-0.26093	-0.11292	-0.01236	0.034943	-0.005646	-0.25742	0.10849	0.002747	-0.003357
14.599	0.003357	-0.026093	-0.083008	0.007172	-0.00061	0.035248	0.019836	0.006104	-0.016022	-0.021362	0.059204	0.005646	-0.003815	-0.042725	0.065155	0.000458	0.017395	-0.031433	-0.72876	-0.016937	-0.026855	0.11231	0.5246	0.019379	-0.088806	-0.005188	0.011749	-0.007019	0.60288	0.063477	0.002594	-0.010681
14.6	0.002899	-0.042572	-0.067444	-0.014954	-0.005493	0.032196	0.016479	0.003204	-0.016785	-0.016479	-0.16022	-0.004425	0.04303	-0.075531	-0.058136	-0.001526	0.032196	-0.081024	-0.37766	-0.081177	-0.044403	0.078125	-0.025482	-0.12528	0.10544	-0.013123	0.031281	-0.00885	0.86548	0.056915	0.002899	-0.016479
14.601	0.000916	-0.018005	0.02243	-0.00885	-0.030365	0.028381	0.010071	0.004425	-0.020599	-0.025787	-0.18509	0.00473	0.095978	-0.064697	-0.096741	0.003662	0.033417	-0.11581	0.015717	-0.085602	-0.037079	0.17075	-0.74417	-0.47455	0.29556	-0.001984	0.023193	-0.00824	0.47516	-0.080109	0.001373	-0.006409
14.602	0.001984	0.00412	0.014801	0.001221	-0.00061	0.01297	0.025635	-0.001068	-0.013733	-0.018158	0.021057	0.003052	0.066528	-0.076904	-0.11475	0.009308	0.034332	-0.057526	-0.36743	-0.006409	-0.027313	0.18341	-1.0689	-0.82581	0.19363	0.00824	-0.001221	-0.005035	-0.17364	-0.035095	0	-0.001068
14.603	0.003967	-0.034637	-0.032196	0.005951	-0.010986	0.029449	0.014343	0.011292	-0.010681	-0.00946	0.059967	0.001831	0.024261	-0.025787	-0.062561	0.002136	0.010071	-0.065613	-0.41702	0.026855	0.004272	0.14313	-1.0164	-0.67719	0.11169	-0.010376	0.13886	-0.000153	-1.1292	0.0354	0.002441	-0.000916
14.604	0.00473	0.013123	-0.014954	0.03067	-0.022125	0.008545	-0.003052	0.005646	-0.000458	0.004578	0.037994	-0.005035	-0.044556	-0.033112	-0.12604	0.001831	0.002136	-0.11566	-0.017853	0.041809	0.014038	0.13748	-0.54855	-0.45624	0.35049	-0.012817	0.2919	-0.000916	-1.114	0.006714	0.007324	-0.013733
14.605	0.007782	0.007324	0.075378	0.005341	-0.007935	-0.002899	0.005188	0.007324	-0.003967	0.001831	0.047607	-0.002594	-0.005646	-0.046692	0.040894	0.000305	0.001831	-0.093994	-0.66574	0.055542	-0.000153	0.13534	-0.34332	-0.17151	0.50644	0.000305	0.18631	-0.00061	0.88455	-0.11169	0.001984	-0.003052
14.606	0.008087	0.010834	-0.006866	0.016174	0.002747	0.003204	0.017395	0.006561	0.025787	-0.006561	0.023041	0.006714	0.017853	-0.056	0.030365	-0.002747	-0.00885	-0.013275	-1.1974	-0.002747	-0.002136	0.096436	-0.44205	-0.049286	0.69794	0.00412	0.13046	-0.012054	0.98587	-0.15015	-0.00061	-0.007935
14.607	0.007019	0.033417	-0.044708	0.039368	-0.003204	0.015564	-0.006561	0.003052	0.019684	-0.022278	0.079193	-0.005951	0.022583	-0.063782	-0.045929	0.011292	-0.002899	0.10208	-0.63019	-0.080414	0.001984	0.071259	-0.40558	-0.13886	0.55924	-0.006714	0.1474	-0.000763	-0.27252	-0.089111	0.002441	-0.004272
14.608	0.00473	0.051575	-0.024414	0.026703	-0.010071	-0.002136	0.00351	-0.001831	0.023651	-0.033264	0.10971	0.005035	0.03891	-0.054474	-0.081177	0.000763	-0.006866	0.19867	-0.7547	-0.075989	0.014648	0.061493	-0.36255	0.14908	-0.010376	-0.011749	0.088654	-0.012512	0.34988	0.014343	-0.001221	-0.007172
14.609	0.005493	0.058594	-0.031738	-0.010223	-0.006104	0.002441	0.020294	-0.000153	0.003967	-0.019989	-0.006561	0.004425	0.015717	-0.055542	-0.003052	0.005951	-0.025635	0.2298	-1.0498	-0.086365	0.037384	0.016937	-0.44754	0.38147	-0.31525	-0.005951	0.057678	-0.016937	0.59433	0.001221	0.001373	-0.003967
14.61	-0.001373	0.058899	-0.010223	-0.006409	-0.003052	0.031128	0.027313	-0.004883	-0.002441	0.002594	-0.11185	-0.003357	0.01297	-0.023193	0.070648	0.002289	-0.009766	0.2066	-0.50308	-0.18799	0.026855	-0.11429	-0.25864	0.26886	-0.3212	-0.006104	0.12436	-0.012665	0.22583	-0.002747	0.003815	-0.014496
14.611	0.013123	0.07431	0.015869	0.015259	0.010681	0.055237	0.045471	0.00351	-0.013885	-0.011597	-0.14893	-0.005646	0.028687	0.001373	-0.02243	-0.007935	0.018311	0.30487	0.70129	-0.31723	-0.014954	-0.12497	0.23758	0.014343	-0.27649	-0.004578	0.33752	-0.007019	-0.13062	-0.057831	0.000153	-0.012207
14.612	0.001984	0.041962	-0.039215	0.019836	-0.005493	0.062561	0.035248	0.010529	-0.027466	0.000305	0.093842	0.002136	-0.031586	0.046539	0.36957	-0.01358	0.055542	0.12726	0.62973	-0.18036	-0.052643	-0.11292	0.57358	-0.18082	0.15717	-0.004272	0.29785	-0.006561	0.48813	-0.072784	0.004578	-0.008087
14.613	0.010071	0.042419	-0.000458	0.001984	-0.01358	0.067749	0.032501	0.00351	-0.053101	-0.009003	0.28549	0.003204	-0.055084	0.010834	1.0422	0.005035	0.028687	-0.001373	0.16312	0.016479	-0.032654	-0.008545	0.55985	-0.18768	0.18906	0.005188	0.15488	-0.000458	0.41977	-0.060272	-0.002899	-0.013428
